<svg width="75" height="57" viewBox="0 0 75 57" fill="none" xmlns="http://www.w3.org/2000/svg">
<path d="M37.1288 10.2143C37.1288 9.78032 37.4805 9.42857 37.9145 9.42857C38.3485 9.42857 38.7002 9.78032 38.7002 10.2143C38.7002 10.6483 38.3485 11 37.9145 11C37.4805 11 37.1288 10.6483 37.1288 10.2143Z" fill="#D8D8D8" stroke="#D8D8D8" stroke-width="8"/>
<path d="M33.4949 30.7056L33.5545 30.7311L33.4949 30.7056ZM33.4949 30.7056L33.4948 30.7056L33.4949 30.7056ZM28.032 15.2295L28.0367 15.2225L28.032 15.2295ZM28.032 15.2295L28.0309 15.2312L28.032 15.2295Z" fill="#D8D8D8" stroke="#D8D8D8" stroke-width="8"/>
<mask id="path-3-inside-1_48_29" fill="white">
<path fill-rule="evenodd" clip-rule="evenodd" d="M57.5 20C57.5 31.0457 48.5457 40 37.5 40C26.4543 40 17.5 31.0457 17.5 20C17.5 8.95433 26.4543 0 37.5 0C48.5457 0 57.5 8.95433 57.5 20ZM55 20C55 29.665 47.165 37.5 37.5 37.5C27.835 37.5 20 29.665 20 20C20 10.335 27.835 2.5 37.5 2.5C47.165 2.5 55 10.335 55 20Z"/>
</mask>
<path fill-rule="evenodd" clip-rule="evenodd" d="M57.5 20C57.5 31.0457 48.5457 40 37.5 40C26.4543 40 17.5 31.0457 17.5 20C17.5 8.95433 26.4543 0 37.5 0C48.5457 0 57.5 8.95433 57.5 20ZM55 20C55 29.665 47.165 37.5 37.5 37.5C27.835 37.5 20 29.665 20 20C20 10.335 27.835 2.5 37.5 2.5C47.165 2.5 55 10.335 55 20Z" fill="#D8D8D8"/>
<path d="M49.5 20C49.5 26.6274 44.1274 32 37.5 32L37.5 48C52.9639 48 65.5 35.4639 65.5 20L49.5 20ZM37.5 32C30.8726 32 25.5 26.6274 25.5 20L9.5 20C9.5 35.4639 22.0361 48 37.5 48L37.5 32ZM25.5 20C25.5 13.3726 30.8726 8 37.5 8L37.5 -8C22.0361 -8 9.5 4.53606 9.5 20L25.5 20ZM37.5 8C44.1274 8 49.5 13.3726 49.5 20L65.5 20C65.5 4.53606 52.9639 -8 37.5 -8L37.5 8ZM47 20C47 25.2467 42.7467 29.5 37.5 29.5L37.5 45.5C51.5833 45.5 63 34.0833 63 20L47 20ZM37.5 29.5C32.2533 29.5 28 25.2467 28 20L12 20C12 34.0833 23.4167 45.5 37.5 45.5L37.5 29.5ZM28 20C28 14.7533 32.2533 10.5 37.5 10.5L37.5 -5.5C23.4167 -5.5 12 5.91672 12 20L28 20ZM37.5 10.5C42.7467 10.5 47 14.7533 47 20L63 20C63 5.91672 51.5833 -5.5 37.5 -5.5L37.5 10.5Z" fill="#D8D8D8" mask="url(#path-3-inside-1_48_29)"/>
<path d="M0.459844 56L4.22784 47.54H5.29584L9.12384 56H7.83984L6.79584 53.6L7.32384 53.936H2.19984L2.76384 53.6L1.71984 56H0.459844ZM4.74384 48.908L2.91984 53.216L2.63184 52.94H6.89184L6.65184 53.216L4.79184 48.908H4.74384ZM12.7275 56.108C12.1195 56.108 11.5875 55.984 11.1315 55.736C10.6835 55.48 10.3355 55.116 10.0875 54.644C9.8475 54.164 9.7275 53.596 9.7275 52.94C9.7275 52.292 9.8515 51.736 10.0995 51.272C10.3475 50.808 10.6955 50.456 11.1435 50.216C11.5915 49.968 12.1195 49.844 12.7275 49.844C13.1195 49.844 13.4995 49.912 13.8675 50.048C14.2355 50.176 14.5395 50.36 14.7795 50.6L14.3835 51.452C14.1595 51.236 13.9075 51.076 13.6275 50.972C13.3475 50.86 13.0755 50.804 12.8115 50.804C12.2355 50.804 11.7835 50.988 11.4555 51.356C11.1275 51.724 10.9635 52.256 10.9635 52.952C10.9635 53.656 11.1275 54.196 11.4555 54.572C11.7835 54.948 12.2355 55.136 12.8115 55.136C13.0675 55.136 13.3355 55.088 13.6155 54.992C13.8955 54.888 14.1515 54.724 14.3835 54.5L14.7795 55.352C14.5315 55.592 14.2195 55.78 13.8435 55.916C13.4755 56.044 13.1035 56.108 12.7275 56.108ZM18.5986 56.108C17.9906 56.108 17.4586 55.984 17.0026 55.736C16.5546 55.48 16.2066 55.116 15.9586 54.644C15.7186 54.164 15.5986 53.596 15.5986 52.94C15.5986 52.292 15.7226 51.736 15.9706 51.272C16.2186 50.808 16.5666 50.456 17.0146 50.216C17.4626 49.968 17.9906 49.844 18.5986 49.844C18.9906 49.844 19.3706 49.912 19.7386 50.048C20.1066 50.176 20.4106 50.36 20.6506 50.6L20.2546 51.452C20.0306 51.236 19.7786 51.076 19.4986 50.972C19.2186 50.86 18.9466 50.804 18.6826 50.804C18.1066 50.804 17.6546 50.988 17.3266 51.356C16.9986 51.724 16.8346 52.256 16.8346 52.952C16.8346 53.656 16.9986 54.196 17.3266 54.572C17.6546 54.948 18.1066 55.136 18.6826 55.136C18.9386 55.136 19.2066 55.088 19.4866 54.992C19.7666 54.888 20.0226 54.724 20.2546 54.5L20.6506 55.352C20.4026 55.592 20.0906 55.78 19.7146 55.916C19.3466 56.044 18.9746 56.108 18.5986 56.108ZM24.6137 56.108C23.6377 56.108 22.8697 55.832 22.3097 55.28C21.7497 54.728 21.4697 53.964 21.4697 52.988C21.4697 52.356 21.5897 51.804 21.8297 51.332C22.0777 50.86 22.4177 50.496 22.8497 50.24C23.2897 49.976 23.7977 49.844 24.3737 49.844C24.9417 49.844 25.4177 49.964 25.8017 50.204C26.1857 50.444 26.4777 50.784 26.6777 51.224C26.8777 51.656 26.9777 52.168 26.9777 52.76V53.144H22.4177V52.448H26.1497L25.9457 52.604C25.9457 52.004 25.8097 51.54 25.5377 51.212C25.2737 50.876 24.8897 50.708 24.3857 50.708C23.8257 50.708 23.3937 50.904 23.0897 51.296C22.7857 51.68 22.6337 52.212 22.6337 52.892V53.012C22.6337 53.724 22.8057 54.26 23.1497 54.62C23.5017 54.98 23.9977 55.16 24.6377 55.16C24.9897 55.16 25.3177 55.112 25.6217 55.016C25.9337 54.912 26.2297 54.744 26.5097 54.512L26.9057 55.34C26.6257 55.588 26.2857 55.78 25.8857 55.916C25.4857 56.044 25.0617 56.108 24.6137 56.108ZM30.4445 56.108C29.9405 56.108 29.4765 56.044 29.0525 55.916C28.6285 55.788 28.2765 55.608 27.9965 55.376L28.3685 54.548C28.6645 54.772 28.9925 54.94 29.3525 55.052C29.7125 55.164 30.0805 55.22 30.4565 55.22C30.8965 55.22 31.2285 55.144 31.4525 54.992C31.6765 54.832 31.7885 54.616 31.7885 54.344C31.7885 54.136 31.7165 53.968 31.5725 53.84C31.4365 53.712 31.2085 53.616 30.8885 53.552L29.7365 53.324C29.2245 53.212 28.8365 53.02 28.5725 52.748C28.3085 52.476 28.1765 52.128 28.1765 51.704C28.1765 51.344 28.2725 51.024 28.4645 50.744C28.6645 50.464 28.9445 50.244 29.3045 50.084C29.6725 49.924 30.1005 49.844 30.5885 49.844C31.0365 49.844 31.4525 49.908 31.8365 50.036C32.2205 50.164 32.5405 50.348 32.7965 50.588L32.4125 51.392C32.1645 51.184 31.8845 51.024 31.5725 50.912C31.2605 50.792 30.9445 50.732 30.6245 50.732C30.1765 50.732 29.8445 50.816 29.6285 50.984C29.4125 51.152 29.3045 51.372 29.3045 51.644C29.3045 51.852 29.3685 52.024 29.4965 52.16C29.6325 52.288 29.8445 52.388 30.1325 52.46L31.2845 52.688C31.8285 52.8 32.2365 52.984 32.5085 53.24C32.7805 53.496 32.9165 53.84 32.9165 54.272C32.9165 54.648 32.8125 54.976 32.6045 55.256C32.3965 55.536 32.1085 55.748 31.7405 55.892C31.3725 56.036 30.9405 56.108 30.4445 56.108ZM34.345 56V49.952H35.557V56H34.345ZM34.249 48.692V47.432H35.653V48.692H34.249ZM40.5613 56.108C40.0333 56.108 39.5733 55.976 39.1813 55.712C38.7893 55.448 38.5293 55.088 38.4013 54.632H38.5333V56H37.3333V47.168H38.5453V51.296H38.4013C38.5373 50.848 38.7973 50.496 39.1813 50.24C39.5733 49.976 40.0333 49.844 40.5613 49.844C41.0973 49.844 41.5653 49.972 41.9653 50.228C42.3653 50.476 42.6733 50.836 42.8893 51.308C43.1133 51.772 43.2253 52.332 43.2253 52.988C43.2253 53.636 43.1133 54.196 42.8893 54.668C42.6733 55.132 42.3613 55.488 41.9533 55.736C41.5533 55.984 41.0893 56.108 40.5613 56.108ZM40.2613 55.16C40.7813 55.16 41.2013 54.98 41.5213 54.62C41.8413 54.252 42.0013 53.708 42.0013 52.988C42.0013 52.26 41.8413 51.716 41.5213 51.356C41.2013 50.988 40.7813 50.804 40.2613 50.804C39.7333 50.804 39.3093 50.988 38.9893 51.356C38.6773 51.716 38.5213 52.256 38.5213 52.976C38.5213 53.696 38.6773 54.24 38.9893 54.608C39.3093 54.976 39.7333 55.16 40.2613 55.16ZM44.6458 56V49.952H45.8578V56H44.6458ZM44.5498 48.692V47.432H45.9538V48.692H44.5498ZM47.6341 56V47.168H48.8461V56H47.6341ZM50.6224 56V49.952H51.8344V56H50.6224ZM50.5264 48.692V47.432H51.9304V48.692H50.5264ZM55.9267 56.108C55.3987 56.108 54.9307 55.984 54.5227 55.736C54.1227 55.488 53.8107 55.128 53.5867 54.656C53.3707 54.184 53.2627 53.624 53.2627 52.976C53.2627 52.32 53.3707 51.76 53.5867 51.296C53.8107 50.832 54.1227 50.476 54.5227 50.228C54.9307 49.972 55.3987 49.844 55.9267 49.844C56.4467 49.844 56.9027 49.976 57.2947 50.24C57.6947 50.496 57.9587 50.848 58.0867 51.296H57.9427V47.168H59.1547V56H57.9547V54.632H58.0987C57.9627 55.088 57.6987 55.448 57.3067 55.712C56.9147 55.976 56.4547 56.108 55.9267 56.108ZM56.2267 55.16C56.7467 55.16 57.1667 54.976 57.4867 54.608C57.8067 54.24 57.9667 53.696 57.9667 52.976C57.9667 52.256 57.8067 51.716 57.4867 51.356C57.1667 50.988 56.7467 50.804 56.2267 50.804C55.6987 50.804 55.2747 50.988 54.9547 51.356C54.6427 51.716 54.4867 52.256 54.4867 52.976C54.4867 53.696 54.6427 54.24 54.9547 54.608C55.2747 54.976 55.6987 55.16 56.2267 55.16ZM63.2392 56.108C62.7032 56.108 62.2352 55.984 61.8352 55.736C61.4352 55.488 61.1232 55.128 60.8992 54.656C60.6832 54.184 60.5752 53.624 60.5752 52.976C60.5752 52.32 60.6832 51.76 60.8992 51.296C61.1232 50.832 61.4352 50.476 61.8352 50.228C62.2352 49.972 62.7032 49.844 63.2392 49.844C63.7672 49.844 64.2272 49.976 64.6192 50.24C65.0112 50.504 65.2712 50.864 65.3992 51.32H65.2672L65.3872 49.952H66.5632C66.5392 50.2 66.5152 50.448 66.4912 50.696C66.4752 50.936 66.4672 51.172 66.4672 51.404V56H65.2552V54.656H65.3872C65.2592 55.104 64.9952 55.46 64.5952 55.724C64.2032 55.98 63.7512 56.108 63.2392 56.108ZM63.5392 55.16C64.0592 55.16 64.4752 54.976 64.7872 54.608C65.1072 54.24 65.2672 53.696 65.2672 52.976C65.2672 52.256 65.1072 51.716 64.7872 51.356C64.4752 50.988 64.0592 50.804 63.5392 50.804C63.0112 50.804 62.5872 50.988 62.2672 51.356C61.9552 51.716 61.7992 52.256 61.7992 52.976C61.7992 53.696 61.9552 54.24 62.2672 54.608C62.5792 54.976 63.0032 55.16 63.5392 55.16ZM70.5517 56.108C70.0237 56.108 69.5557 55.984 69.1477 55.736C68.7477 55.488 68.4357 55.128 68.2117 54.656C67.9957 54.184 67.8877 53.624 67.8877 52.976C67.8877 52.32 67.9957 51.76 68.2117 51.296C68.4357 50.832 68.7477 50.476 69.1477 50.228C69.5557 49.972 70.0237 49.844 70.5517 49.844C71.0717 49.844 71.5277 49.976 71.9197 50.24C72.3197 50.496 72.5837 50.848 72.7117 51.296H72.5677V47.168H73.7797V56H72.5797V54.632H72.7237C72.5877 55.088 72.3237 55.448 71.9317 55.712C71.5397 55.976 71.0797 56.108 70.5517 56.108ZM70.8517 55.16C71.3717 55.16 71.7917 54.976 72.1117 54.608C72.4317 54.24 72.5917 53.696 72.5917 52.976C72.5917 52.256 72.4317 51.716 72.1117 51.356C71.7917 50.988 71.3717 50.804 70.8517 50.804C70.3237 50.804 69.8997 50.988 69.5797 51.356C69.2677 51.716 69.1117 52.256 69.1117 52.976C69.1117 53.696 69.2677 54.24 69.5797 54.608C69.8997 54.976 70.3237 55.16 70.8517 55.16Z" fill="#D8D8D8"/>
</svg>
