<svg width="41" height="42" viewBox="0 0 41 42" fill="none" xmlns="http://www.w3.org/2000/svg">
<path d="M18.75 1.25C18.75 0.625 19.2969 0 20 0C20.625 0 21.25 0.625 21.25 1.25V2.57812C27.5 3.20312 32.5 8.51562 32.5 15V17.3438C32.5 20.7031 33.8281 23.9844 36.25 26.4062L36.4844 26.6406C37.1094 27.2656 37.5 28.2031 37.5 29.0625C37.5 31.0156 35.9375 32.5781 33.9844 32.5781H5.9375C3.98438 32.5 2.5 31.0156 2.5 29.0625C2.5 28.125 2.8125 27.2656 3.51562 26.6406L3.67188 26.4062C6.09375 23.9844 7.5 20.7031 7.5 17.3438V15C7.5 8.51562 12.4219 3.20312 18.75 2.57812V1.25ZM20 5C14.4531 5 10 9.53125 10 15V17.3438C10 21.4062 8.35938 25.3125 5.46875 28.2031L5.23438 28.3594C5.07812 28.5938 5 28.8281 5 29.0625C5 29.6094 5.39062 30 5.9375 30H33.9844C34.5312 30 35 29.6094 35 29.0625C35 28.8281 34.8438 28.5938 34.6875 28.3594L34.4531 28.2031C31.5625 25.3125 29.9219 21.4062 29.9219 17.2656V15C29.9219 9.53125 25.4688 5 19.9219 5H20ZM17.5781 35.8594C17.9688 36.875 18.9062 37.5 20 37.5C21.0156 37.5 21.9531 36.875 22.3438 35.8594C22.5781 35.2344 23.2812 34.8438 23.9062 35.0781C24.5312 35.3125 24.9219 36.0156 24.6875 36.7188C23.9844 38.6719 22.1094 40 20 40C17.8125 40 15.9375 38.6719 15.2344 36.7188C15 36.0156 15.3906 35.3125 16.0156 35.0781C16.6406 34.8438 17.3438 35.2344 17.5781 35.8594Z" fill="#D8D8D8"/>
</svg>
