<svg width="79" height="59" viewBox="0 0 79 59" fill="none" xmlns="http://www.w3.org/2000/svg">
<path d="M37.75 1.25C37.75 0.625 38.2969 0 39 0C39.625 0 40.25 0.625 40.25 1.25V2.57812C46.5 3.20312 51.5 8.51562 51.5 15V17.3438C51.5 20.7031 52.8281 23.9844 55.25 26.4062L55.4844 26.6406C56.1094 27.2656 56.5 28.2031 56.5 29.0625C56.5 31.0156 54.9375 32.5781 52.9844 32.5781H24.9375C22.9844 32.5 21.5 31.0156 21.5 29.0625C21.5 28.125 21.8125 27.2656 22.5156 26.6406L22.6719 26.4062C25.0938 23.9844 26.5 20.7031 26.5 17.3438V15C26.5 8.51562 31.4219 3.20312 37.75 2.57812V1.25ZM39 5C33.4531 5 29 9.53125 29 15V17.3438C29 21.4062 27.3594 25.3125 24.4688 28.2031L24.2344 28.3594C24.0781 28.5938 24 28.8281 24 29.0625C24 29.6094 24.3906 30 24.9375 30H52.9844C53.5312 30 54 29.6094 54 29.0625C54 28.8281 53.8438 28.5938 53.6875 28.3594L53.4531 28.2031C50.5625 25.3125 48.9219 21.4062 48.9219 17.2656V15C48.9219 9.53125 44.4688 5 38.9219 5H39ZM36.5781 35.8594C36.9688 36.875 37.9062 37.5 39 37.5C40.0156 37.5 40.9531 36.875 41.3438 35.8594C41.5781 35.2344 42.2812 34.8438 42.9062 35.0781C43.5312 35.3125 43.9219 36.0156 43.6875 36.7188C42.9844 38.6719 41.1094 40 39 40C36.8125 40 34.9375 38.6719 34.2344 36.7188C34 36.0156 34.3906 35.3125 35.0156 35.0781C35.6406 34.8438 36.3438 35.2344 36.5781 35.8594Z" fill="#D8D8D8"/>
<path d="M0.857328 58V49.54H1.81733L7.01333 56.356H6.71333V49.54H7.87733V58H6.92933L1.74533 51.184H2.02133V58H0.857328ZM12.3413 58.108C11.7413 58.108 11.2213 57.984 10.7813 57.736C10.3413 57.48 10.0013 57.12 9.76133 56.656C9.52133 56.184 9.40133 55.624 9.40133 54.976C9.40133 54.328 9.52133 53.772 9.76133 53.308C10.0013 52.836 10.3413 52.476 10.7813 52.228C11.2213 51.972 11.7413 51.844 12.3413 51.844C12.9413 51.844 13.4613 51.972 13.9013 52.228C14.3493 52.476 14.6933 52.836 14.9333 53.308C15.1813 53.772 15.3053 54.328 15.3053 54.976C15.3053 55.624 15.1813 56.184 14.9333 56.656C14.6933 57.12 14.3493 57.48 13.9013 57.736C13.4613 57.984 12.9413 58.108 12.3413 58.108ZM12.3413 57.16C12.8693 57.16 13.2893 56.976 13.6013 56.608C13.9133 56.24 14.0693 55.696 14.0693 54.976C14.0693 54.256 13.9133 53.716 13.6013 53.356C13.2893 52.988 12.8693 52.804 12.3413 52.804C11.8213 52.804 11.4053 52.988 11.0933 53.356C10.7813 53.716 10.6253 54.256 10.6253 54.976C10.6253 55.696 10.7773 56.24 11.0813 56.608C11.3933 56.976 11.8133 57.16 12.3413 57.16ZM19.0154 58.108C18.3594 58.108 17.8634 57.932 17.5274 57.58C17.1914 57.22 17.0234 56.684 17.0234 55.972V52.888H15.8474V51.952H17.0234V50.356L18.2354 50.032V51.952H19.9154V52.888H18.2354V55.864C18.2354 56.312 18.3154 56.632 18.4754 56.824C18.6354 57.016 18.8674 57.112 19.1714 57.112C19.3234 57.112 19.4554 57.1 19.5674 57.076C19.6874 57.044 19.7954 57.008 19.8914 56.968V57.952C19.7714 58 19.6314 58.036 19.4714 58.06C19.3114 58.092 19.1594 58.108 19.0154 58.108ZM21.0228 58V51.952H22.2348V58H21.0228ZM20.9268 50.692V49.432H22.3308V50.692H20.9268ZM24.371 58V52.888H23.195V51.952H24.707L24.371 52.264V51.304C24.371 50.592 24.547 50.052 24.899 49.684C25.259 49.308 25.779 49.12 26.459 49.12C26.619 49.12 26.791 49.132 26.975 49.156C27.159 49.18 27.315 49.22 27.443 49.276V50.26C27.347 50.22 27.227 50.188 27.083 50.164C26.939 50.132 26.799 50.116 26.663 50.116C26.311 50.116 26.039 50.22 25.847 50.428C25.663 50.628 25.571 50.944 25.571 51.376V52.192L25.391 51.952H29.411V58H28.199V52.888H25.583V58H24.371ZM28.103 50.692V49.432H29.507V50.692H28.103ZM33.8349 58.108C33.2269 58.108 32.6949 57.984 32.2389 57.736C31.7909 57.48 31.4429 57.116 31.1949 56.644C30.9549 56.164 30.8349 55.596 30.8349 54.94C30.8349 54.292 30.9589 53.736 31.2069 53.272C31.4549 52.808 31.8029 52.456 32.2509 52.216C32.6989 51.968 33.2269 51.844 33.8349 51.844C34.2269 51.844 34.6069 51.912 34.9749 52.048C35.3429 52.176 35.6469 52.36 35.8869 52.6L35.4909 53.452C35.2669 53.236 35.0149 53.076 34.7349 52.972C34.4549 52.86 34.1829 52.804 33.9189 52.804C33.3429 52.804 32.8909 52.988 32.5629 53.356C32.2349 53.724 32.0709 54.256 32.0709 54.952C32.0709 55.656 32.2349 56.196 32.5629 56.572C32.8909 56.948 33.3429 57.136 33.9189 57.136C34.1749 57.136 34.4429 57.088 34.7229 56.992C35.0029 56.888 35.2589 56.724 35.4909 56.5L35.8869 57.352C35.6389 57.592 35.3269 57.78 34.9509 57.916C34.5829 58.044 34.2109 58.108 33.8349 58.108ZM39.4403 58.108C38.9043 58.108 38.4363 57.984 38.0363 57.736C37.6363 57.488 37.3243 57.128 37.1003 56.656C36.8843 56.184 36.7763 55.624 36.7763 54.976C36.7763 54.32 36.8843 53.76 37.1003 53.296C37.3243 52.832 37.6363 52.476 38.0363 52.228C38.4363 51.972 38.9043 51.844 39.4403 51.844C39.9683 51.844 40.4283 51.976 40.8203 52.24C41.2123 52.504 41.4723 52.864 41.6003 53.32H41.4683L41.5883 51.952H42.7643C42.7403 52.2 42.7163 52.448 42.6923 52.696C42.6763 52.936 42.6683 53.172 42.6683 53.404V58H41.4563V56.656H41.5883C41.4603 57.104 41.1963 57.46 40.7963 57.724C40.4043 57.98 39.9523 58.108 39.4403 58.108ZM39.7403 57.16C40.2603 57.16 40.6763 56.976 40.9883 56.608C41.3083 56.24 41.4683 55.696 41.4683 54.976C41.4683 54.256 41.3083 53.716 40.9883 53.356C40.6763 52.988 40.2603 52.804 39.7403 52.804C39.2123 52.804 38.7883 52.988 38.4683 53.356C38.1563 53.716 38.0003 54.256 38.0003 54.976C38.0003 55.696 38.1563 56.24 38.4683 56.608C38.7803 56.976 39.2043 57.16 39.7403 57.16ZM47.0888 58.108C46.4808 58.108 45.9488 57.984 45.4928 57.736C45.0448 57.48 44.6968 57.116 44.4488 56.644C44.2088 56.164 44.0888 55.596 44.0888 54.94C44.0888 54.292 44.2128 53.736 44.4608 53.272C44.7088 52.808 45.0568 52.456 45.5048 52.216C45.9528 51.968 46.4808 51.844 47.0888 51.844C47.4808 51.844 47.8608 51.912 48.2288 52.048C48.5968 52.176 48.9008 52.36 49.1408 52.6L48.7448 53.452C48.5208 53.236 48.2688 53.076 47.9888 52.972C47.7088 52.86 47.4368 52.804 47.1728 52.804C46.5968 52.804 46.1448 52.988 45.8168 53.356C45.4888 53.724 45.3248 54.256 45.3248 54.952C45.3248 55.656 45.4888 56.196 45.8168 56.572C46.1448 56.948 46.5968 57.136 47.1728 57.136C47.4288 57.136 47.6968 57.088 47.9768 56.992C48.2568 56.888 48.5128 56.724 48.7448 56.5L49.1408 57.352C48.8928 57.592 48.5808 57.78 48.2048 57.916C47.8368 58.044 47.4648 58.108 47.0888 58.108ZM50.4251 58V51.952H51.6371V58H50.4251ZM50.3291 50.692V49.432H51.7331V50.692H50.3291ZM56.0054 58.108C55.4054 58.108 54.8854 57.984 54.4454 57.736C54.0054 57.48 53.6654 57.12 53.4254 56.656C53.1854 56.184 53.0654 55.624 53.0654 54.976C53.0654 54.328 53.1854 53.772 53.4254 53.308C53.6654 52.836 54.0054 52.476 54.4454 52.228C54.8854 51.972 55.4054 51.844 56.0054 51.844C56.6054 51.844 57.1254 51.972 57.5654 52.228C58.0134 52.476 58.3574 52.836 58.5974 53.308C58.8454 53.772 58.9694 54.328 58.9694 54.976C58.9694 55.624 58.8454 56.184 58.5974 56.656C58.3574 57.12 58.0134 57.48 57.5654 57.736C57.1254 57.984 56.6054 58.108 56.0054 58.108ZM56.0054 57.16C56.5334 57.16 56.9534 56.976 57.2654 56.608C57.5774 56.24 57.7334 55.696 57.7334 54.976C57.7334 54.256 57.5774 53.716 57.2654 53.356C56.9534 52.988 56.5334 52.804 56.0054 52.804C55.4854 52.804 55.0694 52.988 54.7574 53.356C54.4454 53.716 54.2894 54.256 54.2894 54.976C54.2894 55.696 54.4414 56.24 54.7454 56.608C55.0574 56.976 55.4774 57.16 56.0054 57.16ZM60.386 58V53.404C60.386 53.172 60.374 52.936 60.35 52.696C60.334 52.448 60.314 52.2 60.29 51.952H61.466L61.574 53.224H61.43C61.614 52.776 61.898 52.436 62.282 52.204C62.666 51.964 63.11 51.844 63.614 51.844C64.326 51.844 64.862 52.04 65.222 52.432C65.59 52.824 65.774 53.432 65.774 54.256V58H64.562V54.328C64.562 53.792 64.454 53.408 64.238 53.176C64.03 52.936 63.71 52.816 63.278 52.816C62.766 52.816 62.358 52.976 62.054 53.296C61.75 53.608 61.598 54.032 61.598 54.568V58H60.386ZM70.2953 58.108C69.3193 58.108 68.5513 57.832 67.9913 57.28C67.4313 56.728 67.1513 55.964 67.1513 54.988C67.1513 54.356 67.2713 53.804 67.5113 53.332C67.7593 52.86 68.0993 52.496 68.5313 52.24C68.9713 51.976 69.4793 51.844 70.0553 51.844C70.6233 51.844 71.0993 51.964 71.4833 52.204C71.8673 52.444 72.1593 52.784 72.3593 53.224C72.5593 53.656 72.6593 54.168 72.6593 54.76V55.144H68.0993V54.448H71.8313L71.6273 54.604C71.6273 54.004 71.4913 53.54 71.2193 53.212C70.9553 52.876 70.5713 52.708 70.0673 52.708C69.5073 52.708 69.0753 52.904 68.7713 53.296C68.4673 53.68 68.3153 54.212 68.3153 54.892V55.012C68.3153 55.724 68.4873 56.26 68.8313 56.62C69.1833 56.98 69.6793 57.16 70.3193 57.16C70.6713 57.16 70.9993 57.112 71.3033 57.016C71.6153 56.912 71.9113 56.744 72.1913 56.512L72.5873 57.34C72.3073 57.588 71.9673 57.78 71.5673 57.916C71.1673 58.044 70.7433 58.108 70.2953 58.108ZM76.1261 58.108C75.6221 58.108 75.1581 58.044 74.7341 57.916C74.3101 57.788 73.9581 57.608 73.6781 57.376L74.0501 56.548C74.3461 56.772 74.6741 56.94 75.0341 57.052C75.3941 57.164 75.7621 57.22 76.1381 57.22C76.5781 57.22 76.9101 57.144 77.1341 56.992C77.3581 56.832 77.4701 56.616 77.4701 56.344C77.4701 56.136 77.3981 55.968 77.2541 55.84C77.1181 55.712 76.8901 55.616 76.5701 55.552L75.4181 55.324C74.9061 55.212 74.5181 55.02 74.2541 54.748C73.9901 54.476 73.8581 54.128 73.8581 53.704C73.8581 53.344 73.9541 53.024 74.1461 52.744C74.3461 52.464 74.6261 52.244 74.9861 52.084C75.3541 51.924 75.7821 51.844 76.2701 51.844C76.7181 51.844 77.1341 51.908 77.5181 52.036C77.9021 52.164 78.2221 52.348 78.4781 52.588L78.0941 53.392C77.8461 53.184 77.5661 53.024 77.2541 52.912C76.9421 52.792 76.6261 52.732 76.3061 52.732C75.8581 52.732 75.5261 52.816 75.3101 52.984C75.0941 53.152 74.9861 53.372 74.9861 53.644C74.9861 53.852 75.0501 54.024 75.1781 54.16C75.3141 54.288 75.5261 54.388 75.8141 54.46L76.9661 54.688C77.5101 54.8 77.9181 54.984 78.1901 55.24C78.4621 55.496 78.5981 55.84 78.5981 56.272C78.5981 56.648 78.4941 56.976 78.2861 57.256C78.0781 57.536 77.7901 57.748 77.4221 57.892C77.0541 58.036 76.6221 58.108 76.1261 58.108Z" fill="#D8D8D8"/>
</svg>
