<svg width="38" height="23" viewBox="0 0 38 23" fill="none" xmlns="http://www.w3.org/2000/svg">
<path d="M7.6745 23V15.9058C7.6745 15.5732 7.41286 15.3033 7.09039 15.3033H0.849366C0.526894 15.3033 0.265259 15.0334 0.265259 14.7008V8.55737C0.265259 8.22474 0.526894 7.95485 0.849366 7.95485H7.09039C7.41286 7.95485 7.6745 7.68496 7.6745 7.35234V0.602509C7.6745 0.269887 7.93616 0 8.25863 0H14.0169C14.3394 0 14.601 0.269887 14.601 0.602509V7.35234C14.601 7.68496 14.8627 7.95485 15.1851 7.95485H22.0901C22.4126 7.95485 22.6742 8.22474 22.6742 8.55737V14.7008C22.6742 15.0334 22.4126 15.3033 22.0901 15.3033H15.1851C14.8627 15.3033 14.601 15.5732 14.601 15.9058V22.9543M33.4051 1.11354C32.7766 0.448292 31.7402 0.434571 31.0889 1.08283C30.4439 1.73108 30.4307 2.80018 31.0591 3.47196C35.4109 8.0764 35.3197 15.4764 30.8558 19.9652C30.5333 20.2893 30.3654 20.7187 30.3603 21.1506C30.3553 21.5819 30.5118 22.0159 30.8266 22.3485C31.4551 23.0137 32.4915 23.0274 33.1428 22.3792C38.903 16.5932 39.0208 7.04913 33.4051 1.11419V1.11354ZM28.9285 5.61473C28.3 4.94948 27.2636 4.93576 26.6123 5.58402C25.9674 6.23227 25.9541 7.30137 26.5825 7.97315C28.5307 10.0277 28.4895 13.3376 26.4913 15.3405C26.1688 15.6647 26.0009 16.094 25.9959 16.5259C25.9908 16.9572 26.1473 17.3912 26.4622 17.7238C27.0906 18.389 28.1271 18.4027 28.772 17.7538C32.0665 14.4544 32.1336 9.00565 28.9279 5.61408L28.9285 5.61473Z" fill="white"/>
</svg>
